# xmcd
# Track frame offsets:
# 150
# 14347
# 29985
# 43607
# 59527
# 78602
# 96770
# 110177
# 123105
# 138917
# 152587
# 170292
#
# Disc length: 2471 seconds
# Revision: 1
# Processed by: cddbd v1.5.1PL0 Copyright (c) Steve Scherf et al.
# Submitted via: VisiTrax 2.9.9.209 - For more info visit www.synapsa.com
#
DISCID=a009a50c
DTITLE=Kim Schwartz - En helt almind'lig mand
DYEAR=1995
DGENRE=Country
TTITLE0=En helt almind'lig mand
TTITLE1=Forårsdag
TTITLE2=Køge Torv
TTITLE3=Gi' mig et svar
TTITLE4=Her hos mine venner
TTITLE5=Før du går
TTITLE6=Glad for' det li' blev mig
TTITLE7=Jeg vil ha' dig for mig selv
TTITLE8=Efter regnvejr kommer solskin
TTITLE9=Se min kjole
TTITLE10=Allersidste dans
TTITLE11=Du og jeg
EXTD=
EXTT0=
EXTT1=
EXTT2=
EXTT3=
EXTT4=
EXTT5=
EXTT6=
EXTT7=
EXTT8=
EXTT9=
EXTT10=
EXTT11=
PLAYORDER=
